<svg width="27" height="26" viewBox="0 0 27 26" fill="none" xmlns="http://www.w3.org/2000/svg">
<rect x="3.125" y="3.6875" width="14.625" height="14.625" rx="1.6875" fill="#24B35F"/>
<rect x="3.125" y="3.6875" width="14.625" height="14.625" rx="1.6875" fill="url(#paint0_linear_81_197)" fill-opacity="0.5" style="mix-blend-mode:overlay"/>
<rect x="3.125" y="3.6875" width="14.625" height="14.625" rx="1.6875" fill="url(#paint1_linear_81_197)" fill-opacity="0.6" style="mix-blend-mode:overlay"/>
<path d="M15.5 11C15.5 13.7959 13.2334 16.0625 10.4375 16.0625C7.64156 16.0625 5.375 13.7959 5.375 11C5.375 8.20406 7.64156 5.9375 10.4375 5.9375C13.2334 5.9375 15.5 8.20406 15.5 11Z" fill="#0F5A32"/>
<g filter="url(#filter0_bddd_81_197)">
<path d="M20 11C20 13.7959 17.7334 16.0625 14.9375 16.0625C12.1416 16.0625 9.875 13.7959 9.875 11C9.875 8.20406 12.1416 5.9375 14.9375 5.9375C17.7334 5.9375 20 8.20406 20 11Z" fill="white" fill-opacity="0.85"/>
</g>
<defs>
<filter id="filter0_bddd_81_197" x="3.125" y="2" width="23.625" height="23.625" filterUnits="userSpaceOnUse" color-interpolation-filters="sRGB">
<feFlood flood-opacity="0" result="BackgroundImageFix"/>
<feGaussianBlur in="BackgroundImageFix" stdDeviation="0.84375"/>
<feComposite in2="SourceAlpha" operator="in" result="effect1_backgroundBlur_81_197"/>
<feColorMatrix in="SourceAlpha" type="matrix" values="0 0 0 0 0 0 0 0 0 0 0 0 0 0 0 0 0 0 127 0" result="hardAlpha"/>
<feOffset dy="0.5625"/>
<feGaussianBlur stdDeviation="0.5625"/>
<feColorMatrix type="matrix" values="0 0 0 0 0 0 0 0 0 0 0 0 0 0 0 0 0 0 0.1 0"/>
<feBlend mode="normal" in2="effect1_backgroundBlur_81_197" result="effect2_dropShadow_81_197"/>
<feColorMatrix in="SourceAlpha" type="matrix" values="0 0 0 0 0 0 0 0 0 0 0 0 0 0 0 0 0 0 127 0" result="hardAlpha"/>
<feOffset dy="2.8125"/>
<feGaussianBlur stdDeviation="3.375"/>
<feColorMatrix type="matrix" values="0 0 0 0 0 0 0 0 0 0 0 0 0 0 0 0 0 0 0.08 0"/>
<feBlend mode="normal" in2="effect2_dropShadow_81_197" result="effect3_dropShadow_81_197"/>
<feColorMatrix in="SourceAlpha" type="matrix" values="0 0 0 0 0 0 0 0 0 0 0 0 0 0 0 0 0 0 127 0" result="hardAlpha"/>
<feOffset dy="2.25"/>
<feGaussianBlur stdDeviation="2.25"/>
<feColorMatrix type="matrix" values="0 0 0 0 0 0 0 0 0 0 0 0 0 0 0 0 0 0 0.1 0"/>
<feBlend mode="normal" in2="effect3_dropShadow_81_197" result="effect4_dropShadow_81_197"/>
<feBlend mode="normal" in="SourceGraphic" in2="effect4_dropShadow_81_197" result="shape"/>
</filter>
<linearGradient id="paint0_linear_81_197" x1="10.4375" y1="3.6875" x2="10.4375" y2="18.3125" gradientUnits="userSpaceOnUse">
<stop stop-color="white" stop-opacity="0"/>
<stop offset="1" stop-color="white"/>
</linearGradient>
<linearGradient id="paint1_linear_81_197" x1="10.4375" y1="3.6875" x2="10.4375" y2="18.3125" gradientUnits="userSpaceOnUse">
<stop stop-opacity="0"/>
<stop offset="1"/>
</linearGradient>
</defs>
</svg>
